Patient4_TMGait_0pt2_03_left_24_GRF.mot
version=1
nRows=26
nColumns=19
inDegrees=no
endheader
time	F1x	F1y	F1z	M1x	M1y	M1z	F2x	F2y	F2z	M2x	M2y	M2z	EC1x	EC1y	EC1z	EC2x	EC2y	EC2z
50.15	3.2448	-3.1012	-0.94698	0.73736	1.0823	-2.0358	-11.0922	782.6299	-47.3287	272.707	60.0956	847.7682	-0.0592	0.0182	-0.0073	-0.0462	0.0165	0.9585
50.1705	2.1732	-1.7597	-0.60868	0.38092	0.65387	-0.92293	-14.9221	802.7184	-47.5614	279.5433	61.6293	869.5951	-0.0592	0.0182	-0.0073	-0.0462	0.0165	0.9585
50.191	1.2622	-0.59327	-0.32316	0.068908	0.28996	0.039393	-18.5399	825.6991	-47.8742	287.3556	63.0932	894.1999	-0.0592	0.0182	-0.0073	-0.0462	0.0165	0.9585
50.2115	0.56414	0.32454	-0.10395	-0.18016	0.0094258	0.79036	-21.4978	849.0415	-48.2235	295.2864	64.261	918.7366	-0.0592	0.0182	-0.0073	-0.0462	0.0165	0.9585
50.232	0.072598	0.98048	0.052331	-0.36201	-0.19132	1.3188	-23.4873	869.573	-48.5235	302.2536	64.9159	939.7347	-0.0592	0.0182	-0.0073	-0.0462	0.0165	0.9585
50.2525	-0.24828	1.3905	0.15609	-0.47756	-0.32526	1.6357	-24.3566	884.1663	-48.6584	307.1811	64.87	953.8397	-0.0592	0.0182	-0.0073	-0.0462	0.0165	0.9585
50.273	-0.43808	1.5738	0.22115	-0.52787	-0.40721	1.7549	-24.0788	890.3809	-48.5162	309.2206	63.99	958.4913	-0.0592	0.0182	-0.0073	-0.0462	0.0165	0.9585
50.2935	-0.53479	1.5394	0.25908	-0.51059	-0.44937	1.6752	-22.714	886.9771	-48.0303	307.9337	62.2303	952.4508	-0.0592	0.0182	-0.0073	-0.0462	0.0165	0.9585
50.314	-0.57056	1.2827	0.27717	-0.41876	-0.46155	1.3723	-20.3957	874.2165	-47.1944	303.4011	59.6487	936.1099	-0.0592	0.0182	-0.0073	-0.0462	0.0165	0.9585
50.3345	-0.56951	0.78123	0.27902	-0.24163	-0.44874	0.80516	-17.3166	853.8188	-46.0792	296.2094	56.4185	911.4279	-0.0592	0.0182	-0.0073	-0.0462	0.0165	0.9585
50.355	-0.54374	0.0025659	0.26077	0.032733	-0.40821	-0.075144	-13.6988	828.5459	-44.8235	287.3075	52.8066	881.4638	-0.0592	0.0182	-0.0073	-0.0462	0.0165	0.9585
50.3755	-0.49549	-1.0674	0.21505	0.40895	-0.33303	-1.2948	-9.7806	801.5657	-43.6132	277.7868	49.1408	849.6874	-0.0592	0.0182	-0.0073	-0.0462	0.0165	0.9585
50.396	-0.4216	-2.3982	0.13343	0.87478	-0.21251	-2.8257	-5.7904	775.8601	-42.6366	268.6803	45.7443	819.3366	-0.0592	0.0182	-0.0073	-0.0462	0.0165	0.9585
50.4165	-0.31248	-3.8771	0.0045884	1.3888	-0.02853	-4.5357	-1.9133	753.8119	-42.0331	260.8206	42.8708	792.976	-0.0592	0.0182	-0.0073	-0.0462	0.0165	0.9585
50.437	-0.15333	-5.2555	-0.17867	1.8629	0.23488	-6.1332	1.713	736.9502	-41.8671	254.7521	40.6692	772.2272	-0.0592	0.0182	-0.0073	-0.0462	0.0165	0.9585
50.4575	0.068094	-6.0926	-0.41085	2.1418	0.57717	-7.1054	5.0073	725.8938	-42.1256	250.7091	39.1765	757.7186	-0.0592	0.0182	-0.0073	-0.0462	0.0165	0.9585
50.478	0.3595	-5.7127	-0.66877	1.9876	0.97427	-6.6637	7.9394	720.3961	-42.7502	248.624	38.348	749.157	-0.0592	0.0182	-0.0073	-0.0462	0.0165	0.9585
50.4985	0.71816	-3.1767	-0.90528	1.0706	1.3716	-3.7155	10.4989	719.4205	-43.6679	248.148	38.1028	745.4318	-0.0592	0.0182	-0.0073	-0.0462	0.0165	0.9585
50.519	1.1184	2.6947	-1.0426	-1.0216	1.6705	3.1098	12.6683	721.2417	-44.7869	248.6834	38.3332	744.7453	-0.0592	0.0182	-0.0073	-0.0462	0.0165	0.9585
50.5395	1.5003	13.2202	-0.96428	-4.748	1.7133	15.3431	14.3982	723.6226	-45.9746	249.4486	38.8973	744.8083	-0.0592	0.0182	-0.0073	-0.0462	0.0165	0.9585
50.56	1.756	29.6319	-0.50898	-10.535	1.2708	34.414	15.5963	724.0699	-47.0536	249.5699	39.6233	743.1039	-0.0592	0.0182	-0.0073	-0.0462	0.0165	0.9585
50.5805	1.7085	52.687	0.527	-18.6367	0.039578	61.1953	16.1441	720.1416	-47.8164	248.1939	40.3219	737.1946	-0.0592	0.0182	-0.0073	-0.0462	0.0165	0.9585
50.601	1.1013	82.0646	2.3692	-28.9207	-2.3381	95.3094	15.9526	709.7903	-48.0546	244.6063	40.7933	725.0537	-0.0592	0.0182	-0.0073	-0.0462	0.0165	0.9585
50.6215	-0.29913	115.8296	5.1799	-40.6878	-6.1338	134.4925	15.0238	691.7494	-47.5993	238.3677	40.8503	705.4256	-0.0592	0.0182	-0.0073	-0.0462	0.0165	0.9585
50.642	-2.2837	150.8618	8.8413	-52.8459	-11.1222	175.0511	13.5005	665.9769	-46.3774	229.4687	40.358	678.2488	-0.0592	0.0182	-0.0073	-0.0462	0.0165	0.9585
50.6625	-4.3971	184.5924	12.8242	-64.5293	-16.5062	213.8871	11.6548	633.8237	-44.456	218.3849	39.2785	644.8187	-0.0592	0.0182	-0.0073	-0.0462	0.0165	0.9585
